<svg width="259" height="67" viewBox="0 0 259 67" fill="none" xmlns="http://www.w3.org/2000/svg">
<rect width="115" height="50" transform="translate(130 5)" fill="#35CDCC"/>
<path d="M152.279 32.5039C152.279 33.0898 152.178 33.6139 151.977 34.0762C151.781 34.5319 151.511 34.9193 151.166 35.2383C150.827 35.5573 150.421 35.8014 149.945 35.9707C149.477 36.14 148.975 36.2246 148.441 36.2246C147.842 36.2246 147.302 36.1172 146.82 35.9023C146.339 35.6875 145.925 35.3327 145.58 34.8379V36H143.764V31.8398H145.58C145.58 32.2565 145.652 32.6243 145.795 32.9434C145.945 33.2624 146.14 33.5326 146.381 33.7539C146.622 33.9688 146.902 34.1348 147.221 34.252C147.54 34.3626 147.878 34.418 148.236 34.418C148.842 34.418 149.33 34.278 149.701 33.998C150.072 33.7181 150.258 33.2721 150.258 32.6602C150.258 32.3411 150.199 32.0677 150.082 31.8398C149.971 31.612 149.809 31.4102 149.594 31.2344C149.385 31.0521 149.128 30.8958 148.822 30.7656C148.516 30.6289 148.168 30.4857 147.777 30.3359C147.315 30.1797 146.853 30.0039 146.391 29.8086C145.928 29.6133 145.515 29.3724 145.15 29.0859C144.786 28.7995 144.49 28.4479 144.262 28.0312C144.034 27.6081 143.92 27.0775 143.92 26.4395C143.92 25.8796 144.021 25.3913 144.223 24.9746C144.431 24.5514 144.704 24.1966 145.043 23.9102C145.388 23.6237 145.785 23.4089 146.234 23.2656C146.69 23.1159 147.172 23.041 147.68 23.041C148.266 23.041 148.767 23.1647 149.184 23.4121C149.607 23.6595 149.932 23.9883 150.16 24.3984V23.2559H151.977V27.2207H150.16C150.16 26.472 149.962 25.8893 149.564 25.4727C149.174 25.0495 148.646 24.8379 147.982 24.8379C147.396 24.8379 146.908 24.9746 146.518 25.248C146.133 25.5215 145.941 25.9056 145.941 26.4004C145.941 26.6543 145.99 26.8724 146.088 27.0547C146.192 27.2305 146.339 27.3932 146.527 27.543C146.723 27.6862 146.967 27.8229 147.26 27.9531C147.553 28.0768 147.891 28.2135 148.275 28.3633C148.757 28.5326 149.236 28.7246 149.711 28.9395C150.186 29.1543 150.613 29.418 150.99 29.7305C151.368 30.043 151.677 30.4238 151.918 30.873C152.159 31.3158 152.279 31.8594 152.279 32.5039ZM163.041 36H154.896V23.2559H163.041V25.082H156.918V28.5977H161.693V30.4238H156.918V34.1836H163.041V36ZM173.959 36H165.814V23.2559H173.959V25.082H167.836V28.5977H172.611V30.4238H167.836V34.1836H173.959V36ZM195.795 36H193.773V27.377L192.494 31.957H190.932L189.672 27.377V36H187.65V23.2559H190.053L191.713 29.0176L193.373 23.2559H195.795V36ZM197.768 29.623C197.768 28.7702 197.859 27.9466 198.041 27.1523C198.223 26.3581 198.507 25.6582 198.891 25.0527C199.275 24.4473 199.776 23.9622 200.395 23.5977C201.02 23.2266 201.771 23.041 202.65 23.041C203.529 23.041 204.278 23.2266 204.896 23.5977C205.521 23.9622 206.029 24.4473 206.42 25.0527C206.811 25.6582 207.094 26.3581 207.27 27.1523C207.445 27.9466 207.533 28.7702 207.533 29.623C207.533 30.4759 207.445 31.2995 207.27 32.0938C207.094 32.8815 206.814 33.5846 206.43 34.2031C206.046 34.8151 205.541 35.3066 204.916 35.6777C204.298 36.0423 203.542 36.2246 202.65 36.2246C201.758 36.2246 201 36.0423 200.375 35.6777C199.757 35.3066 199.252 34.8151 198.861 34.2031C198.477 33.5846 198.201 32.8815 198.031 32.0938C197.855 31.2995 197.768 30.4759 197.768 29.623ZM199.789 29.623C199.789 30.196 199.831 30.7689 199.916 31.3418C200.007 31.9147 200.157 32.429 200.365 32.8848C200.58 33.334 200.87 33.6986 201.234 33.9785C201.605 34.2585 202.077 34.3984 202.65 34.3984C203.223 34.3984 203.692 34.2585 204.057 33.9785C204.428 33.6986 204.717 33.334 204.926 32.8848C205.141 32.429 205.29 31.9147 205.375 31.3418C205.466 30.7689 205.512 30.196 205.512 29.623C205.512 29.0501 205.466 28.4805 205.375 27.9141C205.29 27.3477 205.141 26.8366 204.926 26.3809C204.717 25.9251 204.424 25.5573 204.047 25.2773C203.676 24.9974 203.21 24.8574 202.65 24.8574C201.719 24.8574 201.01 25.2773 200.521 26.1172C200.033 26.957 199.789 28.1257 199.789 29.623ZM218.285 36H215.727L212.426 30.8438H211.508V36H209.486V23.2559H213.686C215.085 23.2559 216.173 23.5781 216.947 24.2227C217.722 24.8607 218.109 25.8079 218.109 27.0645C218.109 27.6243 218.021 28.1191 217.846 28.5488C217.676 28.972 217.432 29.3366 217.113 29.6426C216.801 29.9486 216.433 30.1927 216.01 30.375C215.593 30.5508 215.141 30.6712 214.652 30.7363L218.285 36ZM216.088 27.0352C216.088 26.3841 215.873 25.8958 215.443 25.5703C215.02 25.2448 214.434 25.082 213.686 25.082H211.508V29.0176H213.686C214.434 29.0176 215.02 28.8548 215.443 28.5293C215.873 28.2038 216.088 27.7057 216.088 27.0352ZM228.549 36H220.404V23.2559H228.549V25.082H222.426V28.5977H227.201V30.4238H222.426V34.1836H228.549V36Z" fill="black"/>
<path d="M11 47.4256H31.1917V42.4702H15.8411V27.9794H31.1917V23.4041H15.8411V15.5245H31.1917V10.9492L11 11.0122V47.4256Z" fill="black"/>
<path d="M39 27.9043L54.0958 36.6095V42.6469H43.8411V36.9919H39V47.4134L59.0655 47.3505V31.9712L44.0958 23.3266V15.7036H54.4161V21.3585H59.1917V11H39V27.9043Z" fill="black"/>
<path d="M72.0958 15.7036H87.0849L87.1917 11H67V47.4134H86.6845V42.8381H72.0958V15.7036Z" fill="black"/>
<path d="M97.4926 22.423L102.826 27.7439H77V32.5854H103.292L97.4926 38.3735L100.924 41.7965L111.319 31.4259V29.3706L100.924 19L97.4926 22.423Z" fill="black"/>
<path d="M249.002 0H127.032V4.88514L121.97 0.00484157H0V58.5418L7.88885 66.2835L131.97 67L131.963 63.2986L134.921 66.2786L259.002 66.9952L258.905 9.63956L249.002 0ZM249.002 53.6954V6.69831L254.055 11.6682L254.135 58.9557L249.002 53.8358V53.6954ZM131.885 17.5362V4.84157H244.149V53.6954H131.946L131.885 17.5386V17.5362ZM127.032 17.5773V58.5369H127.1V58.9606L121.968 53.8406V6.70315L127.02 11.673L127.03 17.5749L127.032 17.5773ZM117.117 4.84641V53.7002H4.85319V4.84641H117.117ZM7.03469 58.5418H119.818L123.395 62.11L9.92477 61.454L7.03469 58.5418ZM134.064 58.5369H246.848L250.424 62.1052L136.955 61.4491L134.064 58.5369Z" fill="black"/>
</svg>
