<svg width="78" height="70" viewBox="0 0 78 70" fill="none" xmlns="http://www.w3.org/2000/svg">
<g clip-path="url(#clip0_172_356)">
<path d="M6.57031 25.8957H18.1418V23.3976H9.56645V8.58274H15.6333V11.6709H18.4416V6.01549H6.57031V25.8957Z" fill="white"/>
<path d="M37.0911 8.54819H41.7337V25.8957H44.5807V8.54819H48.9996V6.01549H37.0911V8.54819Z" fill="white"/>
<path d="M59.5542 23.0507H58.4685L55.7721 6.01549H52.1779L55.9973 25.8957H62.1387L65.9954 6.01549H62.2133L59.5542 23.0507Z" fill="white"/>
<path d="M33.1985 17.0326V6.03542H22.0774V25.9156H24.9602L24.9229 17.0339H26.1205L31.3627 25.9156H35.1075L29.9026 17.0339H33.1985V17.0326ZM24.9215 14.5358V8.49902H30.201V14.5358H24.9215Z" fill="white"/>
<path d="M18.2551 56.9312H9.18066V48.977H18.2551V46.4656H9.18066V42.1403H18.2551V39.6289L6.31934 39.6634V59.6513H18.2551V56.9312Z" fill="white"/>
<path d="M33.9945 51.1749L25.1467 46.4297V42.2453H31.2465V45.3494H34.0706V39.6634H22.1348V48.9425L31.0572 53.7208V57.0349H24.9961V53.9308H22.1348V59.6513L33.9945 59.6167V51.1749Z" fill="white"/>
<path d="M49.0111 57.1399H40.3884V42.2453H49.2477L49.3108 39.6634H37.3765V59.6513H49.0111V57.1399Z" fill="white"/>
<path d="M75.5919 36.7613L78.0014 36.7746L77.9441 5.29129L72.0909 0H0V32.1318L1.70962 33.6187H0V65.7505L4.66273 70H78.0014L77.9441 38.9113L75.5919 36.7627V36.7613ZM72.0909 63.0929V37.2968L75.077 40.0249L75.1243 65.9817L72.0909 63.1713V63.0942V63.0929ZM75.077 6.40483L75.1243 32.3617L72.0909 29.5512V3.6768L75.077 6.40483ZM70.8187 32.1318L72.9328 34.0904H72.6646L72.1899 33.6559L72.0895 33.7503V33.62H5.74702L4.15788 32.1331H70.8187V32.1318ZM2.86849 2.65761H69.2224V29.4742H2.86849V2.65761ZM4.66273 36.3813L69.2224 36.7281V63.0929H2.86849V36.2763H4.55086L4.66273 36.3813ZM4.15644 65.7505H70.8173L72.9314 67.7091L5.86463 67.349L4.15644 65.7505Z" fill="white"/>
<path d="M44.1188 48.3578V51.0154H59.6588L56.231 54.1926L58.259 56.0715L64.4033 50.3789V49.2494L58.259 43.5582L56.231 45.4371L59.3834 48.3578H44.1188Z" fill="white"/>
</g>
<defs>
<clipPath id="clip0_172_356">
<rect width="78" height="70" fill="white"/>
</clipPath>
</defs>
</svg>
