<svg width="259" height="67" viewBox="0 0 259 67" fill="none" xmlns="http://www.w3.org/2000/svg">
<rect width="115" height="50" transform="translate(130 5)" fill="#35CDCC"/>
<path d="M146.623 36H144.602V27.377L143.322 31.957H141.76L140.5 27.377V36H138.479V23.2559H140.881L142.541 29.0176L144.201 23.2559H146.623V36ZM148.596 29.623C148.596 28.7702 148.687 27.9466 148.869 27.1523C149.051 26.3581 149.335 25.6582 149.719 25.0527C150.103 24.4473 150.604 23.9622 151.223 23.5977C151.848 23.2266 152.6 23.041 153.479 23.041C154.357 23.041 155.106 23.2266 155.725 23.5977C156.35 23.9622 156.857 24.4473 157.248 25.0527C157.639 25.6582 157.922 26.3581 158.098 27.1523C158.273 27.9466 158.361 28.7702 158.361 29.623C158.361 30.4759 158.273 31.2995 158.098 32.0938C157.922 32.8815 157.642 33.5846 157.258 34.2031C156.874 34.8151 156.369 35.3066 155.744 35.6777C155.126 36.0423 154.37 36.2246 153.479 36.2246C152.587 36.2246 151.828 36.0423 151.203 35.6777C150.585 35.3066 150.08 34.8151 149.689 34.2031C149.305 33.5846 149.029 32.8815 148.859 32.0938C148.684 31.2995 148.596 30.4759 148.596 29.623ZM150.617 29.623C150.617 30.196 150.66 30.7689 150.744 31.3418C150.835 31.9147 150.985 32.429 151.193 32.8848C151.408 33.334 151.698 33.6986 152.062 33.9785C152.434 34.2585 152.906 34.3984 153.479 34.3984C154.051 34.3984 154.52 34.2585 154.885 33.9785C155.256 33.6986 155.546 33.334 155.754 32.8848C155.969 32.429 156.118 31.9147 156.203 31.3418C156.294 30.7689 156.34 30.196 156.34 29.623C156.34 29.0501 156.294 28.4805 156.203 27.9141C156.118 27.3477 155.969 26.8366 155.754 26.3809C155.546 25.9251 155.253 25.5573 154.875 25.2773C154.504 24.9974 154.038 24.8574 153.479 24.8574C152.548 24.8574 151.838 25.2773 151.35 26.1172C150.861 26.957 150.617 28.1257 150.617 29.623ZM169.113 36H166.555L163.254 30.8438H162.336V36H160.314V23.2559H164.514C165.913 23.2559 167.001 23.5781 167.775 24.2227C168.55 24.8607 168.938 25.8079 168.938 27.0645C168.938 27.6243 168.85 28.1191 168.674 28.5488C168.505 28.972 168.26 29.3366 167.941 29.6426C167.629 29.9486 167.261 30.1927 166.838 30.375C166.421 30.5508 165.969 30.6712 165.48 30.7363L169.113 36ZM166.916 27.0352C166.916 26.3841 166.701 25.8958 166.271 25.5703C165.848 25.2448 165.262 25.082 164.514 25.082H162.336V29.0176H164.514C165.262 29.0176 165.848 28.8548 166.271 28.5293C166.701 28.2038 166.916 27.7057 166.916 27.0352ZM179.377 36H171.232V23.2559H179.377V25.082H173.254V28.5977H178.029V30.4238H173.254V34.1836H179.377V36ZM201.213 36H198.869L195.09 26.7617V36H193.068V23.2559H195.607L199.191 32.0352V23.2559H201.213V36ZM212.131 36H203.986V23.2559H212.131V25.082H206.008V28.5977H210.783V30.4238H206.008V34.1836H212.131V36ZM224.143 23.2559L222.17 36H220.09L218.967 30.502L217.863 36H215.783L213.811 23.2559H215.91L217.082 31.8398L218.01 26.8984H219.943L220.842 31.8398L222.043 23.2559H224.143ZM234.123 32.5039C234.123 33.0898 234.022 33.6139 233.82 34.0762C233.625 34.5319 233.355 34.9193 233.01 35.2383C232.671 35.5573 232.264 35.8014 231.789 35.9707C231.32 36.14 230.819 36.2246 230.285 36.2246C229.686 36.2246 229.146 36.1172 228.664 35.9023C228.182 35.6875 227.769 35.3327 227.424 34.8379V36H225.607V31.8398H227.424C227.424 32.2565 227.495 32.6243 227.639 32.9434C227.788 33.2624 227.984 33.5326 228.225 33.7539C228.465 33.9688 228.745 34.1348 229.064 34.252C229.383 34.3626 229.722 34.418 230.08 34.418C230.686 34.418 231.174 34.278 231.545 33.998C231.916 33.7181 232.102 33.2721 232.102 32.6602C232.102 32.3411 232.043 32.0677 231.926 31.8398C231.815 31.612 231.652 31.4102 231.438 31.2344C231.229 31.0521 230.972 30.8958 230.666 30.7656C230.36 30.6289 230.012 30.4857 229.621 30.3359C229.159 30.1797 228.697 30.0039 228.234 29.8086C227.772 29.6133 227.359 29.3724 226.994 29.0859C226.63 28.7995 226.333 28.4479 226.105 28.0312C225.878 27.6081 225.764 27.0775 225.764 26.4395C225.764 25.8796 225.865 25.3913 226.066 24.9746C226.275 24.5514 226.548 24.1966 226.887 23.9102C227.232 23.6237 227.629 23.4089 228.078 23.2656C228.534 23.1159 229.016 23.041 229.523 23.041C230.109 23.041 230.611 23.1647 231.027 23.4121C231.451 23.6595 231.776 23.9883 232.004 24.3984V23.2559H233.82V27.2207H232.004C232.004 26.472 231.805 25.8893 231.408 25.4727C231.018 25.0495 230.49 24.8379 229.826 24.8379C229.24 24.8379 228.752 24.9746 228.361 25.248C227.977 25.5215 227.785 25.9056 227.785 26.4004C227.785 26.6543 227.834 26.8724 227.932 27.0547C228.036 27.2305 228.182 27.3932 228.371 27.543C228.566 27.6862 228.811 27.8229 229.104 27.9531C229.396 28.0768 229.735 28.2135 230.119 28.3633C230.601 28.5326 231.079 28.7246 231.555 28.9395C232.03 29.1543 232.456 29.418 232.834 29.7305C233.212 30.043 233.521 30.4238 233.762 30.873C234.003 31.3158 234.123 31.8594 234.123 32.5039Z" fill="black"/>
<path d="M11 47.4256H31.1917V42.4702H15.8411V27.9794H31.1917V23.4041H15.8411V15.5245H31.1917V10.9492L11 11.0122V47.4256Z" fill="black"/>
<path d="M39 27.9043L54.0958 36.6095V42.6469H43.8411V36.9919H39V47.4134L59.0655 47.3505V31.9712L44.0958 23.3266V15.7036H54.4161V21.3585H59.1917V11H39V27.9043Z" fill="black"/>
<path d="M72.0958 15.7036H87.0849L87.1917 11H67V47.4134H86.6845V42.8381H72.0958V15.7036Z" fill="black"/>
<path d="M97.4926 22.423L102.826 27.7439H77V32.5854H103.292L97.4926 38.3735L100.924 41.7965L111.319 31.4259V29.3706L100.924 19L97.4926 22.423Z" fill="black"/>
<path d="M249.002 0H127.032V4.88514L121.97 0.00484157H0V58.5418L7.88885 66.2835L131.97 67L131.963 63.2986L134.921 66.2786L259.002 66.9952L258.905 9.63956L249.002 0ZM249.002 53.6954V6.69831L254.055 11.6682L254.135 58.9557L249.002 53.8358V53.6954ZM131.885 17.5361V4.84157H244.149V53.6954H131.946L131.885 17.5386V17.5361ZM127.032 17.5773V58.5369H127.1V58.9606L121.968 53.8406V6.70315L127.02 11.673L127.03 17.5749L127.032 17.5773ZM117.117 4.84641V53.7002H4.85319V4.84641H117.117ZM7.03469 58.5418H119.818L123.395 62.11L9.92477 61.454L7.03469 58.5418ZM134.064 58.5369H246.848L250.424 62.1052L136.955 61.4492L134.064 58.5369Z" fill="black"/>
</svg>
